/* XPM */
static char * babelfish_xpm[] = {
"22 22 155 2",
"  	c None",
". 	c #000000",
"+ 	c #091030",
"@ 	c #040411",
"# 	c #081127",
"$ 	c #131148",
"% 	c #1B4566",
"& 	c #040B11",
"* 	c #010101",
"= 	c #111111",
"- 	c #1A1A1A",
"; 	c #347A91",
"> 	c #367A99",
", 	c #6E8CB9",
"' 	c #061D21",
") 	c #355A76",
"! 	c #365E77",
"~ 	c #A4D1E9",
"{ 	c #B0D7EB",
"] 	c #8EC9E5",
"^ 	c #95CAE6",
"/ 	c #82C2E3",
"( 	c #5BB0DC",
"_ 	c #459CB8",
": 	c #749DC3",
"< 	c #FFFFFF",
"[ 	c #5AABD9",
"} 	c #B8DBEB",
"| 	c #C3DFEC",
"1 	c #8DC8E4",
"2 	c #65B2DA",
"3 	c #41A4D8",
"4 	c #41A3D6",
"5 	c #26769F",
"6 	c #4078A7",
"7 	c #A54343",
"8 	c #7C1D1D",
"9 	c #0F0303",
"0 	c #12131A",
"a 	c #83BBD0",
"b 	c #D9E1EB",
"c 	c #8FBECA",
"d 	c #4D96A8",
"e 	c #2680A5",
"f 	c #257AA6",
"g 	c #38A2D3",
"h 	c #5879AF",
"i 	c #D63232",
"j 	c #992323",
"k 	c #060606",
"l 	c #828289",
"m 	c #DADADD",
"n 	c #7E838F",
"o 	c #203249",
"p 	c #0F1C3E",
"q 	c #1D5C88",
"r 	c #2B6698",
"s 	c #FEFEFE",
"t 	c #9C2A29",
"u 	c #4A4A4A",
"v 	c #BCBCBF",
"w 	c #676773",
"x 	c #18181B",
"y 	c #080808",
"z 	c #0A0102",
"A 	c #3C0E17",
"B 	c #994E62",
"C 	c #0A0A0A",
"D 	c #6E6D6D",
"E 	c #99999B",
"F 	c #1D1A28",
"G 	c #1C0909",
"H 	c #461414",
"I 	c #B63E2E",
"J 	c #F58060",
"K 	c #E69B99",
"L 	c #F0CBC8",
"M 	c #FEFDF9",
"N 	c #181818",
"O 	c #737373",
"P 	c #434343",
"Q 	c #994D61",
"R 	c #F16341",
"S 	c #FBA384",
"T 	c #DF6356",
"U 	c #DDAA46",
"V 	c #D68F1F",
"W 	c #B1562D",
"X 	c #161313",
"Y 	c #3C3939",
"Z 	c #101010",
"` 	c #340F0F",
" .	c #FEFDFD",
"..	c #85241D",
"+.	c #DE3C2F",
"@.	c #D43E39",
"#.	c #DFB022",
"$.	c #E35A4D",
"%.	c #EA7460",
"&.	c #4D1715",
"*.	c #D53434",
"=.	c #DE8655",
"-.	c #F5DC36",
";.	c #D0A319",
">.	c #0E0C03",
",.	c #A33A39",
"'.	c #F9A285",
").	c #FB9A78",
"!.	c #571715",
"~.	c #D63434",
"{.	c #EFDB56",
"].	c #F7D82A",
"^.	c #302A0C",
"/.	c #7F2323",
"(.	c #E57269",
"_.	c #DE4F44",
":.	c #DB342C",
"<.	c #D63D32",
"[.	c #DB713D",
"}.	c #ECD327",
"|.	c #F4CF07",
"1.	c #1C1807",
"2.	c #7E2121",
"3.	c #D6756B",
"4.	c #D64543",
"5.	c #D73834",
"6.	c #D93833",
"7.	c #0A0402",
"8.	c #D63433",
"9.	c #DB7734",
"0.	c #E9D20E",
"a.	c #DFC412",
"b.	c #6A6917",
"c.	c #494512",
"d.	c #555312",
"e.	c #F5DA46",
"f.	c #E76251",
"g.	c #EB6249",
"h.	c #EB705C",
"i.	c #E5675E",
"j.	c #F8DE2F",
"k.	c #F0D127",
"l.	c #F5D606",
"m.	c #E7D00E",
"n.	c #42410D",
"o.	c #F6D729",
"p.	c #F8E32D",
"q.	c #F8DE2D",
"r.	c #F7DC24",
"s.	c #F8E337",
"t.	c #F1D226",
"u.	c #E0C613",
"v.	c #ADA11C",
"w.	c #423D0F",
"x.	c #101006",
"                  . . .           + .       ",
"              . . @             # . .       ",
"              . . $             . . .       ",
"            . . . .           % % . .       ",
"            & * = - % ; ; ; % > , . . .     ",
"          ' ) ! ~ { ] ^ / ( _ : < . . . . . ",
"        % [ } | 1 2 3 4 5 6 < < 7 8 9 . .   ",
"      0 a b c d e f g > h < < i j           ",
"    k l m n o p q r 3 h < s i t             ",
"    u v w x y z A j B < < i i j             ",
"  C D E F G H . I J K L M i j               ",
"  N O P . . . Q R S T U V W j       .       ",
"  X Y Z ` <  .. ..+.@.#.V j       .         ",
"t $.%.&.< < . < . *.=.-.;.>.. . . .         ",
",.'.).!.< < < < . ~.{.].^.. . . .           ",
"/.(._.:.. < < . <.[.}.|.1.. .               ",
"2.3.4.5.6.7.* 8.9.0.a.b.c.                  ",
"d.e.f.g.h.i.j.k.l.m.b.n.                    ",
"d.o.p.q.r.s.t.u.v.d.c.                      ",
"  d.d.d.d.n.n.w.c.c.                        ",
"          . x..                             ",
"      . . .                                 "};
