/* XPM */
static char * babelfish_small_xpm[] = {
"18 18 120 2",
"  	c None",
". 	c #010103",
"+ 	c #000002",
"@ 	c #000000",
"# 	c #070C23",
"$ 	c #010205",
"% 	c #060515",
"& 	c #010306",
"* 	c #000102",
"= 	c #030308",
"- 	c #1E4665",
"; 	c #0B1721",
"> 	c #132632",
", 	c #1E2D36",
"' 	c #4B5A62",
") 	c #486F88",
"! 	c #4F859F",
"~ 	c #48839F",
"{ 	c #326F8D",
"] 	c #6C98B8",
"^ 	c #3B424D",
"/ 	c #2A5D7D",
"( 	c #56A3CB",
"_ 	c #8CC6E3",
": 	c #67B5DE",
"< 	c #488BB4",
"[ 	c #A8CDDE",
"} 	c #F2D1D1",
"| 	c #7A3D3D",
"1 	c #0E0303",
"2 	c #323840",
"3 	c #9CBECF",
"4 	c #4B889F",
"5 	c #2D7EA7",
"6 	c #3698C8",
"7 	c #4C83AA",
"8 	c #B5C6DC",
"9 	c #BE3A3A",
"0 	c #262626",
"a 	c #87878C",
"b 	c #86878F",
"c 	c #2A323C",
"d 	c #13192D",
"e 	c #423F5B",
"f 	c #666E91",
"g 	c #BDCADF",
"h 	c #F5CCCC",
"i 	c #D54545",
"j 	c #9B2726",
"k 	c #424242",
"l 	c #8D8D8F",
"m 	c #29232C",
"n 	c #2C0F10",
"o 	c #220B09",
"p 	c #B5493A",
"q 	c #D47D7A",
"r 	c #FFFFFF",
"s 	c #E88F8D",
"t 	c #B22929",
"u 	c #B64E47",
"v 	c #414040",
"w 	c #3A3939",
"x 	c #221C1C",
"y 	c #454545",
"z 	c #7E3E44",
"A 	c #E26A50",
"B 	c #E26556",
"C 	c #DBA434",
"D 	c #BE6825",
"E 	c #9D2C25",
"F 	c #93302D",
"G 	c #914B42",
"H 	c #4F2C29",
"I 	c #89453F",
"J 	c #A6A6A6",
"K 	c #7B7372",
"L 	c #84221E",
"M 	c #D95942",
"N 	c #E4BB28",
"O 	c #8A5216",
"P 	c #160605",
"Q 	c #F48E73",
"R 	c #88413A",
"S 	c #BFBDBC",
"T 	c #6C1D1A",
"U 	c #E6A34A",
"V 	c #C8AE22",
"W 	c #241E07",
"X 	c #993836",
"Y 	c #DD5D55",
"Z 	c #CD3630",
"` 	c #B1B0B0",
" .	c #6F2B25",
"..	c #DC7030",
"+.	c #E5BE23",
"@.	c #99870C",
"#.	c #191706",
"$.	c #886128",
"%.	c #E5824F",
"&.	c #E35444",
"*.	c #C85347",
"=.	c #9B7229",
"-.	c #E19C26",
";.	c #EAC113",
">.	c #AB9D13",
",.	c #504E11",
"'.	c #7F761A",
").	c #D9BE2A",
"!.	c #D9BA2A",
"~.	c #D7BA2B",
"{.	c #D3B928",
"].	c #BFAB16",
"^.	c #847B15",
"/.	c #534F12",
"(.	c #555312",
"_.	c #3C3B0C",
":.	c #292809",
"<.	c #292609",
"[.	c #494512",
"}.	c #050502",
"            . + @       # $         ",
"          @ %           & @         ",
"        * @ =         - ; @         ",
"        > , ' ) ! ~ { ] ^ @ @       ",
"      / ( ( _ : ( < [ } | 1 @ @     ",
"    2 3 ( 4 5 6 7 8 } 9             ",
"  0 a b c d e f g h i j             ",
"  k l m n o p q r s t               ",
"u v w x y z A B C D E     @         ",
"F G H I J K L M N O P @ @           ",
"u Q R r r S T U V W @ @             ",
"X Y Z R `  ...+.@.#.@               ",
"$.%.&.*.=.-.;.>.,.                  ",
"'.).!.~.{.].^./.                    ",
"  (.(._.:.<.[.                      ",
"    @ @ }.                          ",
"                                    ",
"                                    "};
