/* XPM */
static char * clear_left_xpm[] = {
"22 22 4 1",
" 	c None",
".	c #FFFFFF",
"+	c #FFFFFF",
"@	c #000000",
"                      ",
"                      ",
"                      ",
"                      ",
"       @@@@@@@@@@@@@@ ",
"      @@@@@@@@@@@@@@@ ",
"     @@@@@@@@@@@@@@@@ ",
"    @@@@@++@@@@@++@@@ ",
"   @@@@@@+++@@@+++@@@ ",
"  @@@@@@@@.+.@+++@@@@ ",
" @@@@@@@@@@+++++@@@@@ ",
"@@@@@@@@@@@@+++@@@@@@ ",
" @@@@@@@@@@+++++@@@@@ ",
"  @@@@@@@@+++@+++@@@@ ",
"   @@@@@@+++@@@+++@@@ ",
"    @@@@@++@@@@@++@@@ ",
"     @@@@@@@@@@@@@@@@ ",
"      @@@@@@@@@@@@@@@ ",
"       @@@@@@@@@@@@@@ ",
"                      ",
"                      ",
"                      "};
