/* XPM */
static char * clipboard_xpm[] = {
"22 22 145 2",
"  	c None",
". 	c #792D00",
"+ 	c #EEAE37",
"@ 	c #F3E3C1",
"# 	c #1F3A78",
"$ 	c #F3DE9F",
"% 	c #92ABD0",
"& 	c #6484B6",
"* 	c #F39507",
"= 	c #F3A017",
"- 	c #F3AF2D",
"; 	c #F3E0AF",
"> 	c #D39827",
", 	c #F39A0D",
"' 	c #F39F11",
") 	c #F3D890",
"! 	c #F3B237",
"~ 	c #FEFEFF",
"{ 	c #F3CF7B",
"] 	c #F39B0E",
"^ 	c #F3BD4A",
"/ 	c #F3B945",
"( 	c #F3BB4A",
"_ 	c #F3AF2E",
": 	c #F3A823",
"< 	c #F3B83F",
"[ 	c #D1DCEC",
"} 	c #F39A12",
"| 	c #F3DEA5",
"1 	c #F37900",
"2 	c #F38900",
"3 	c #F3BB48",
"4 	c #F3D284",
"5 	c #F3AB2E",
"6 	c #F3CF81",
"7 	c #F3B63A",
"8 	c #F3DA9A",
"9 	c #F3A218",
"0 	c #F38400",
"a 	c #F3B843",
"b 	c #F3DEA7",
"c 	c #F3CC6D",
"d 	c #F3C05D",
"e 	c #F39F0C",
"f 	c #F3D287",
"g 	c #F37C00",
"h 	c #F3970C",
"i 	c #F38B00",
"j 	c #F39E12",
"k 	c #F3AF32",
"l 	c #F3AB2A",
"m 	c #F3D89F",
"n 	c #F39A08",
"o 	c #F3BD4F",
"p 	c #F3A71D",
"q 	c #F3A41F",
"r 	c #F3AA26",
"s 	c #F36200",
"t 	c #F3CC70",
"u 	c #F3DA96",
"v 	c #F3B232",
"w 	c #F3BC52",
"x 	c #F3B83E",
"y 	c #F3C25A",
"z 	c #F39303",
"A 	c #F39504",
"B 	c #F3E3AF",
"C 	c #F39201",
"D 	c #F38000",
"E 	c #F3DEAB",
"F 	c #F3E6B6",
"G 	c #F3E0A1",
"H 	c #F3B03A",
"I 	c #F35D00",
"J 	c #CFDCED",
"K 	c #F3AF2A",
"L 	c #F3AC3E",
"M 	c #F3CF77",
"N 	c #F3CF74",
"O 	c #F3E6BE",
"P 	c #F3A111",
"Q 	c #F3B238",
"R 	c #F39B0C",
"S 	c #F37000",
"T 	c #F3A31E",
"U 	c #F38500",
"V 	c #F3A21D",
"W 	c #F3EDD7",
"X 	c #F38D00",
"Y 	c #F3D28A",
"Z 	c #F3C367",
"` 	c #F3AC34",
" .	c #F3D894",
"..	c #F3C362",
"+.	c #F3AC29",
"@.	c #F3B83A",
"#.	c #F36300",
"$.	c #91ABD0",
"%.	c #F3AB27",
"&.	c #F3E6C7",
"*.	c #F37F00",
"=.	c #F3D88A",
"-.	c #F39000",
";.	c #F3A113",
">.	c #F3B532",
",.	c #F3B84F",
"'.	c #F39E0D",
").	c #F3C970",
"!.	c #F3D88D",
"~.	c #F3DEA1",
"{.	c #F3C974",
"].	c #F3B245",
"^.	c #F3E6C1",
"/.	c #F37400",
"(.	c #F39101",
"_.	c #F37300",
":.	c #F36700",
"<.	c #F3990B",
"[.	c #F3A61E",
"}.	c #F3A317",
"|.	c #F3E0A5",
"1.	c #F39B11",
"2.	c #F39A0B",
"3.	c #F3C977",
"4.	c #F36C00",
"5.	c #92ACD0",
"6.	c #F39100",
"7.	c #F3DE96",
"8.	c #F3A319",
"9.	c #F3A118",
"0.	c #F3C25D",
"a.	c #F3C663",
"b.	c #F39606",
"c.	c #CFDCEC",
"d.	c #F3A822",
"e.	c #F3C967",
"f.	c #F39306",
"g.	c #F3B53C",
"h.	c #F3D587",
"i.	c #F3F0D2",
"j.	c #F3F0D9",
"k.	c #F3A81F",
"l.	c #F3D27E",
"m.	c #F3C057",
"n.	c #FFFFFF",
"                                            ",
"                    & & #                   ",
"      + + + + + + & ~ ~ ~ # + + + +         ",
"    + @ $ $ $ $ & [ [ J [ c.# > > > > .     ",
"    + @ W F F & % % % $.% % 5.# , 1 s .     ",
"    + @ j.; ; # # # # # # # # # 1 s I .     ",
"    + @ i.; ; | 7.=.M 0.a 5 = 0 4.:.#..     ",
"    + @ &.B B | 8 !.{ a.3 d.i g /.S _..     ",
"    + @ ^.E E |. .{ e.o +.n 2 D *.1 g .     ",
"    + @ O $ $ h.N c m._ ' z 6.2 U D 0 .     ",
"    + @ G f f 4 l.y 5 = , 2.b.C i 2 X .     ",
"    + @ $ ) ) Y y v : T 8.' h * (.-.f..     ",
"    + @ ~.u u c x ! - : k.9 ;.'.* C h .     ",
"    + @ b 4 4 o < 7 >.K : p }., n z ] .     ",
"    + @ b t t ( a 7 k - r [.= ' e A 1..     ",
"    + @ | d d ^ / x ! _ l q 9 j , * } .     ",
"    + @ 8 w w 3 / g.! _ l q 9.j <.* } .     ",
"    + @ ) ( ( / < Q k - %.V = ] R * } .     ",
"    + @ { ^ ^ 3 < @.v - r p = P e A ] .     ",
"    + @ m m 6 6 3.{.).Z ..,.L H ` 5 ]..     ",
"      . . . . . . . . . . . . . . . .       ",
"                                            "};
