/* XPM */
static char * conf_xpm[] = {
"16 16 17 1",
" 	c None",
".	c #89899D",
"+	c #3B3B4E",
"@	c #EBEBEB",
"#	c #D8D8EB",
"$	c #626276",
"%	c #D8D8D8",
"&	c #C4C4D8",
"*	c #EBEBFF",
"=	c #C4C4C4",
"-	c #B1B1C4",
";	c #626289",
">	c #9D9DC4",
",	c #767689",
"'	c #9D9DB1",
")	c #76769D",
"!	c #8989B1",
"    .....       ",
"    +@@##$$     ",
"    .+###%%$    ",
"     .+#%%&$    ",
"..    ..%&&&$   ",
".*.   .%&&&=$   ",
".*#. .%&&&=-$   ",
".@##.%&&&=--$   ",
".@#%%&&&=---$   ",
".;@%&&&=--->,$  ",
" +.@@@@#%&>'',$ ",
" .++..)).--''!,$",
"   .+++++)--!..;",
"        .+)--..)",
"         .+,-'))",
"          .+,-')"};
