/* XPM */
static char * de_pl_xpm[] = {
"22 22 5 1",
" 	c None",
".	c #000000",
"+	c #CF0000",
"#	c #EAE60B",
"$	c #FFFFFF",
"....................  ",
"....................  ",
"....................  ",
"....................  ",
"....................  ",
".++++++++++++++++++.  ",
".++++++++++++++++++.  ",
".++++++++++++++++++.  ",
".++++++++++++++++++...",
".##################.$.",
".##################.$.",
".##################.$.",
".##################.$.",
"....................$.",
"  .$$$$$$$$$$$$$$$$$$.",
"  .++++++++++++++++++.",
"  .++++++++++++++++++.",
"  .++++++++++++++++++.",
"  .++++++++++++++++++.",
"  .++++++++++++++++++.",
"  .++++++++++++++++++.",
"  ...................."};
