/* XPM */
static char * de_pl_dis_xpm[] = {
"22 22 4 1",
" 	g None",
".	g #767676",
"+	g #949494",
"@	g #FFFFFF",
"....................  ",
"....................  ",
"....................  ",
"....................  ",
"....................  ",
".++++++++++++++++++.  ",
".++++++++++++++++++.  ",
".++++++++++++++++++.  ",
".++++++++++++++++++...",
".@@@@@@@@@@@@@@@@@@.@.",
".@@@@@@@@@@@@@@@@@@.@.",
".@@@@@@@@@@@@@@@@@@.@.",
".@@@@@@@@@@@@@@@@@@.@.",
"....................@.",
"  .@@@@@@@@@@@@@@@@@@.",
"  .++++++++++++++++++.",
"  .++++++++++++++++++.",
"  .++++++++++++++++++.",
"  .++++++++++++++++++.",
"  .++++++++++++++++++.",
"  .++++++++++++++++++.",
"  ...................."};
