/* XPM */
static char * en_pl_xpm[] = {
"22 22 5 1",
" 	c None",
".	c #000000",
"+	c #1F0F6F",
"@	c #FFFFFF",
"#	c #CF0000",
"....................  ",
".+++++++@##@+++++++.  ",
".@@+++++@##@+++++@@.  ",
".+@@++++@##@++++@@+.  ",
".+++@@++@##@++@@+++.  ",
".@@@@@@@@##@@@@@@@@.  ",
".##################.  ",
".##################.  ",
".@@@@@@@@##@@@@@@@@...",
".+++@@++@##@++@@+++.@.",
".+@@++++@##@++++@@+.@.",
".@@+++++@##@+++++@@.@.",
".+++++++@##@+++++++.@.",
"....................@.",
"  .@@@@@@@@@@@@@@@@@@.",
"  .##################.",
"  .##################.",
"  .##################.",
"  .##################.",
"  .##################.",
"  .##################.",
"  ...................."};
