/* XPM */
static const char * exit_xpm[] = {
"16 16 14 1",
" 	c None",
".	c #AA2B00",
"+	c #AA0000",
"@	c #AA552B",
"#	c #AA2B2B",
"$	c #D4AA80",
"%	c #D48055",
"&	c #D48080",
"*	c #FFD4D4",
"=	c #FFFFFF",
"-	c #FFD4AA",
";	c #D4AAAA",
">	c #FFFFD4",
",	c #D4D4AA",
" .+@#########+. ",
".#$%%%%%%%%%%$#.",
"+$#@@@@&&%%%%%$+",
"#%@@%*====-%%%%#",
"#%@%==*$;>==%%%.",
"#%@*=$%--%;=-%$.",
"#%%=*%%>>%%>=%$.",
"#%&=$%%>>%%-=$$.",
"#%&=$%%>>%%-=$$.",
"#%%=-%%>>%%==$$.",
"#%%>=$%*-%,=*$$.",
"#%%%==*;;*==$$$.",
"#%%%%*====*$$$$.",
"+$%%%%&;;$$$$,%+",
".#$%%$$$$$$$$%+.",
" .+#.........+. "};
