/* XPM */
static char * f4_xpm[] = {
"5 12 2 1",
" 	c None",
".	c #000000",
"     ",
"     ",
"     ",
"     ",
"     ",
" ... ",
"  .  ",
"  .  ",
"  .  ",
"  .  ",
"  .  ",
" ... "};
