/* XPM */
static char * f8_xpm[] = {
"7 12 2 1",
" 	c None",
".	c #000000",
"       ",
"       ",
"       ",
"  ...  ",
" .   . ",
" .   . ",
" .   . ",
" ..... ",
" .   . ",
" .   . ",
" .   . ",
"  ...  "};
