/* XPM */
static const char * help_xpm[] = {
"18 18 22 1",
" 	c None",
".	c #000000",
"+	c #55552B",
"@	c #55AAAA",
"#	c #805555",
"$	c #2B2B2B",
"%	c #FFD4D4",
"&	c #FFFFFF",
"*	c #D4AAAA",
"=	c #FFFFD4",
"-	c #808055",
";	c #D4D4AA",
">	c #008055",
",	c #558080",
"'	c #808080",
")	c #2B8080",
"!	c #AA8080",
"~	c #FFD4AA",
"{	c #AAAA80",
"]	c #D4AA80",
"^	c #D4D4D4",
"/	c #2B5555",
" ....      ++..   ",
".@#$..   ++%#..   ",
".@#&$..$$%&&#..   ",
".@#&&$$*%=&&-..   ",
".@#&&&#;%=&&-.....",
".@#&&&-;%=&&-%>...",
".,#&&&-;%=&&-%>...",
".,#&&=-;%=&&'%>...",
".)#===';%=&&'%>...",
".)#%%%';%=&&!%>...",
".)#;%~-;%=*-{%>...",
"..)-;;-;*-{{;%>...",
"...)-]-{-;^^%%>...",
" ...)---))))))>...",
"  ...)/)..........",
"   ...............",
"    ..............",
"     .....        "};
