/* XPM */
static char * loop_xpm[] = {
"22 22 57 1",
" 	c None",
".	c #024266",
"+	c #AEDDE9",
"@	c #94CEDE",
"#	c #9BD1DF",
"$	c #87C5D7",
"%	c #9BD0DF",
"&	c #81BFD3",
"*	c #99CFDF",
"=	c #7BBACF",
"-	c #9CCFDF",
";	c #73B1C9",
">	c #76B4CB",
",	c #6FAEC7",
"'	c #8EC3D6",
")	c #6AA9C3",
"!	c #61A1BD",
"~	c #63A3BF",
"{	c #A2D2E1",
"]	c #A5D6E4",
"^	c #5D9DBB",
"/	c #5E9DBB",
"(	c #83B9CE",
"_	c #145476",
":	c #8DC3D5",
"<	c #5798B7",
"[	c #044468",
"}	c #5899B8",
"|	c #79B3C9",
"1	c #5292B2",
"2	c #61A1BE",
"3	c #63A1BB",
"4	c #4B8DAE",
"5	c #5596B4",
"6	c #4D8EAE",
"7	c #4687AA",
"8	c #5494B4",
"9	c #498AAC",
"0	c #3F81A6",
"a	c #5090B1",
"b	c #3C7EA4",
"c	c #3E80A5",
"d	c #3A7CA2",
"e	c #3779A0",
"f	c #397BA1",
"g	c #33769E",
"h	c #31749C",
"i	c #32759D",
"j	c #2E709A",
"k	c #2D6F99",
"l	c #276B96",
"m	c #286C96",
"n	c #33759C",
"o	c #4586A9",
"p	c #33769C",
"q	c #226592",
"r	c #1B5F8E",
"        ...           ",
"      ..++@.          ",
"    ..+#$$$.  ....... ",
"   .+%&&&&&. .++++++*.",
"  .+=====..  .+=====. ",
"  .-;>>..    .+>>>>.  ",
" .+,,,.      .+,,,,,. ",
" .')).       .+))))). ",
".+!~~.       .{~.~~~~.",
".]^/.        .(_ .///.",
".:<<.         [  .}<<.",
".|11.            .211.",
".344.            .544.",
".6777.          .8977.",
" .000.          .abc. ",
" .dddd.        .8efd. ",
"  .gggg..    ..8hig.  ",
"  .jjjjjj....87kkjj.  ",
"   .llllllmnopllll.   ",
"    ..qqqqqqqqqq..    ",
"      ..rrrrrr..      ",
"        ......        "};
