/* XPM */
static char * pl_de_dis_xpm[] = {
"22 22 4 1",
" 	g None",
".	g #767676",
"+	g #FFFFFF",
"@	g #949494",
"....................  ",
".++++++++++++++++++.  ",
".++++++++++++++++++.  ",
".++++++++++++++++++.  ",
".++++++++++++++++++.  ",
".++++++++++++++++++.  ",
".++++++++++++++++++.  ",
".@@@@@@@@@@@@@@@@@@.  ",
".@@@@@@@@@@@@@@@@@@...",
".@@@@@@@@@@@@@@@@@@...",
".@@@@@@@@@@@@@@@@@@...",
".@@@@@@@@@@@@@@@@@@...",
".@@@@@@@@@@@@@@@@@@...",
"....................@.",
"  .@@@@@@@@@@@@@@@@@@.",
"  .@@@@@@@@@@@@@@@@@@.",
"  .@@@@@@@@@@@@@@@@@@.",
"  .++++++++++++++++++.",
"  .++++++++++++++++++.",
"  .++++++++++++++++++.",
"  .++++++++++++++++++.",
"  ...................."};
