/* XPM */
static char * pl_en_xpm[] = {
"22 22 5 1",
" 	c None",
".	c #000000",
"+	c #FFFFFF",
"@	c #CF0000",
"#	c #1F0F6F",
"....................  ",
".++++++++++++++++++.  ",
".++++++++++++++++++.  ",
".++++++++++++++++++.  ",
".++++++++++++++++++.  ",
".++++++++++++++++++.  ",
".++++++++++++++++++.  ",
".@@@@@@@@@@@@@@@@@@.  ",
".@@@@@@@@@@@@@@@@@@...",
".@@@@@@@@@@@@@@@@@@.#.",
".@@@@@@@@@@@@@@@@@@.+.",
".@@@@@@@@@@@@@@@@@@.#.",
".@@@@@@@@@@@@@@@@@@.#.",
"....................+.",
"  .@@@@@@@@@@@@@@@@@@.",
"  .@@@@@@@@@@@@@@@@@@.",
"  .++++++++@@++++++++.",
"  .###++##+@@+##++###.",
"  .#++####+@@+####++#.",
"  .++#####+@@+#####++.",
"  .#######+@@+#######.",
"  ...................."};
