/* XPM */
static char * player_play_xpm[] = {
"24 24 46 1",
" 	c None",
".	c #6E6E6E",
"+	c #575757",
"@	c #676767",
"#	c #000000",
"$	c #323232",
"%	c #C4C4C4",
"&	c #5D5D5D",
"*	c #313131",
"=	c #C5C5C5",
"-	c #E4E4E4",
";	c #2D2D2D",
">	c #B7B7B7",
",	c #EFEFEF",
"'	c #DCDCDC",
")	c #282828",
"!	c #AFAFAF",
"~	c #E0E0E0",
"{	c #242424",
"]	c #C7C7C7",
"^	c #9A9A9A",
"/	c #8E8E8E",
"(	c #1F1F1F",
"_	c #A5A5A5",
":	c #989898",
"<	c #888888",
"[	c #1B1B1B",
"}	c #ADADAD",
"|	c #858585",
"1	c #838383",
"2	c #868686",
"3	c #929292",
"4	c #C1C1C1",
"5	c #161616",
"6	c #909090",
"7	c #747474",
"8	c #3A3A3A",
"9	c #121212",
"0	c #0D0D0D",
"a	c #7A7A7A",
"b	c #8A8A8A",
"c	c #090909",
"d	c #040404",
"e	c #707070",
"f	c #F8F8F8",
"g	c #3F3F3F",
"                        ",
"                        ",
"                        ",
"         .+             ",
"         +@#            ",
"         $%&#           ",
"         *=-&#          ",
"         ;>,'&#         ",
"         )!~>'&#        ",
"         {!]^/'&#       ",
"         (_]:</'&#      ",
"         [^}|1234&#     ",
"         56^11/}78#     ",
"         9|:1/}78#      ",
"         0ab/}78#       ",
"         ca^}78#        ",
"         d7^78#         ",
"         #e78#          ",
"         #.8#    f      ",
"         #g#            ",
"         ##             ",
"                        ",
"                        ",
"                        "};
