/* XPM */
static char * erase_left_xpm[] = {
"22 22 13 1",
" 	c None",
".	c #000000",
"+	c #CFCFCF",
"@	c #BDBDBD",
"#	c #B7B7B7",
"$	c #888888",
"%	c #FFFFFF",
"&	c #939393",
"*	c #5A5A5A",
"=	c #696969",
"-	c #404040",
";	c #2D2D2D",
">	c #181818",
"                      ",
"                      ",
"                      ",
"                      ",
"                      ",
"                      ",
"    ..........        ",
"    .+@##@##@@.       ",
"    .$%%$&$%%$&.      ",
"    .*%%%*%%%*==.     ",
"    .-;%%%%%;----.    ",
"    .>>.%%%.>>>>>>.   ",
"    ...%%%%%......%   ",
"    ..%%%.%%%....%    ",
"    ..%%...%%...%     ",
"    ...........%      ",
"    ..........%       ",
"    %%%%%%%%%%        ",
"                      ",
"                      ",
"                      ",
"                      "};
