/* XPM */
static const char * tux_xpm[] = {
"16 16 43 1",
" 	c None",
".	c #9F9F9F",
"+	c #808080",
"@	c #404040",
"#	c #202020",
"$	c #BFBFBF",
"%	c #FFFFFF",
"&	c #DFDFDF",
"*	c #606060",
"=	c #DFDFFF",
"-	c #000000",
";	c #DFDF9F",
">	c #FFFF60",
",	c #FFFF40",
"'	c #FFDF80",
")	c #FFFF9F",
"!	c #FFDF40",
"~	c #DFDFBF",
"{	c #809F9F",
"]	c #9F9FBF",
"^	c #404060",
"/	c #FFFFBF",
"(	c #BFBF80",
"_	c #DFBF80",
":	c #BFBF9F",
"<	c #9F8040",
"[	c #806040",
"}	c #DFDF60",
"|	c #FFDF60",
"1	c #FFBF40",
"2	c #FF9F40",
"3	c #DF8040",
"4	c #DF9F60",
"5	c #FFBF80",
"6	c #FFBF60",
"7	c #DF9F40",
"8	c #9F6040",
"9	c #604040",
"0	c #804020",
"a	c #804040",
"b	c #402020",
"c	c #404020",
"d	c #602020",
"     ..+++@#    ",
"    ..$.++@@#   ",
"   ..%%&+$$*@   ",
"  $*$%%$.=%$#@  ",
"  +#.&&++$%.-@# ",
"  @#*$;>,'$#-@# ",
" +#-*&&)!~&+-## ",
"*#--$%%%&&&&*###",
"@#-@&&%%%&&$+###",
"###+&&&%&&$${@##",
"  @+&&&&&&$.+@# ",
"  #+$&&&&$..+@  ",
"   *]$$$$].+^#  ",
" )/((_:$$:::<[# ",
" }||123++45678# ",
" #9[0ab##cadd@# "};
